<svg width="30" height="30" viewBox="0 0 30 30" fill="none" xmlns="http://www.w3.org/2000/svg"><circle cx="15" cy="15" r="15" fill="#000"/><path d="M22.8646 12.2307L15 7L7.1354 12.2307C7.1354 12.2307 7 12.327 7 12.4173V20.4771C7 21.3198 7.64316 22 8.433 22H21.567C22.3568 22 23 21.3198 23 20.4771V12.4173C23 12.327 22.8646 12.2307 22.8646 12.2307ZM15.4288 17.1786C15.4175 17.1846 15.4062 17.1906 15.4006 17.1966C15.3893 17.2026 15.378 17.2026 15.3667 17.2087C15.3159 17.2388 15.2595 17.2628 15.2031 17.2809H15.1862C15.1241 17.299 15.0621 17.311 15 17.311C14.9379 17.311 14.8759 17.299 14.8138 17.2809H14.7969C14.7405 17.2628 14.6841 17.2388 14.6333 17.2087C14.622 17.2026 14.6107 17.2026 14.5994 17.1966C14.5938 17.1906 14.5825 17.1846 14.5712 17.1786L7.16925 12.2548H22.8307L15.4288 17.1786Z" fill="#fff"/></svg>