<svg width="31" height="32" viewBox="0 0 31 32" fill="none" xmlns="http://www.w3.org/2000/svg"><path d="M15.3715 0.663513C6.88257 0.663513 0 7.54635 0 16.0356C0 24.5319 6.88257 31.4147 15.3715 31.4147C23.8674 31.4147 30.75 24.5319 30.75 16.0356C30.75 7.54635 23.8674 0.663513 15.3715 0.663513ZM19.0552 10.0668C19.0552 10.1915 18.9513 10.2884 18.8336 10.2884H17.0887C16.6594 10.2884 16.3132 10.6346 16.3132 11.0639V12.892H18.792C18.9236 12.892 19.0275 13.0028 19.0136 13.1274L18.799 15.7033C18.7851 15.8141 18.6882 15.9041 18.5774 15.9041H16.3132V24.4488C16.3132 24.5665 16.2163 24.6634 16.0986 24.6634H12.9758C12.8512 24.6634 12.7542 24.5665 12.7542 24.4488V15.9041H11.1963C11.0717 15.9041 10.9747 15.8071 10.9747 15.6825V13.1066C10.9747 12.9889 11.0717 12.892 11.1963 12.892H12.7542V10.4061C12.7542 8.68195 14.1598 7.2763 15.8839 7.2763H18.8336C18.9513 7.2763 19.0552 7.37324 19.0552 7.49788V10.0668Z" fill="#000"/></svg>