<svg width="31" height="32" viewBox="0 0 31 32" fill="none" xmlns="http://www.w3.org/2000/svg"><path d="M15.4062 13.5904C13.8205 13.5904 12.5327 14.8783 12.5327 16.4571C12.5327 18.0428 13.8205 19.3307 15.4062 19.3307C16.9849 19.3307 18.2727 18.0428 18.2727 16.4571C18.2727 14.8783 16.9849 13.5904 15.4062 13.5904ZM15.4062 13.5904C13.8205 13.5904 12.5327 14.8783 12.5327 16.4571C12.5327 18.0428 13.8205 19.3307 15.4062 19.3307C16.9849 19.3307 18.2727 18.0428 18.2727 16.4571C18.2727 14.8783 16.9849 13.5904 15.4062 13.5904ZM15.3715 0.967224C6.88257 0.967224 0 7.85006 0 16.3394C0 24.8356 6.88257 31.7184 15.3715 31.7184C23.8674 31.7184 30.75 24.8356 30.75 16.3394C30.75 7.85006 23.8674 0.967224 15.3715 0.967224ZM24.4421 19.947C24.4421 22.966 21.9979 25.4103 18.979 25.4103H11.771C8.75208 25.4103 6.30787 22.966 6.30787 19.947V12.7387C6.30787 9.71965 8.75208 7.27534 11.771 7.27534H18.979C21.9979 7.27534 24.4421 9.71965 24.4421 12.7387V19.947ZM18.979 8.98566H11.771C9.69376 8.98566 8.01812 10.6614 8.01812 12.7387V19.947C8.01812 22.0174 9.69376 23.7 11.771 23.7H18.979C21.0493 23.7 22.7319 22.0174 22.7319 19.947V12.7387C22.7319 10.6614 21.0493 8.98566 18.979 8.98566ZM15.4062 20.9372C12.9342 20.9372 10.9263 18.9291 10.9263 16.4571C10.9263 13.992 12.9342 11.977 15.4062 11.977C17.8711 11.977 19.8861 13.992 19.8861 16.4571C19.8861 18.9291 17.8711 20.9372 15.4062 20.9372ZM20.1423 12.7456C19.5537 12.7456 19.0759 12.2678 19.0759 11.6792C19.0759 11.0907 19.5537 10.6129 20.1423 10.6129C20.7308 10.6129 21.2086 11.0907 21.2086 11.6792C21.2086 12.2678 20.7308 12.7456 20.1423 12.7456ZM15.4062 13.5904C13.8205 13.5904 12.5327 14.8783 12.5327 16.4571C12.5327 18.0428 13.8205 19.3307 15.4062 19.3307C16.9849 19.3307 18.2727 18.0428 18.2727 16.4571C18.2727 14.8783 16.9849 13.5904 15.4062 13.5904Z" fill="#000"/></svg>