<svg width="73" height="68" viewBox="0 0 73 68" fill="none" xmlns="http://www.w3.org/2000/svg"><path d="M36.5893 27.914C32.895 27.914 29.8944 30.762 29.8944 34.253C29.8944 37.7594 32.895 40.6074 36.5893 40.6074C40.2674 40.6074 43.268 37.7594 43.268 34.253C43.268 30.762 40.2674 27.914 36.5893 27.914ZM36.5893 27.914C32.895 27.914 29.8944 30.762 29.8944 34.253C29.8944 37.7594 32.895 40.6074 36.5893 40.6074C40.2674 40.6074 43.268 37.7594 43.268 34.253C43.268 30.762 40.2674 27.914 36.5893 27.914ZM36.5086 0.000732422C16.7306 0.000732422 0.695312 15.2206 0.695312 33.9927C0.695312 52.7802 16.7306 68 36.5086 68C56.3027 68 72.338 52.7802 72.338 33.9927C72.338 15.2206 56.3027 0.000732422 36.5086 0.000732422ZM57.6417 41.9701C57.6417 48.646 51.947 54.0511 44.9134 54.0511H28.1199C21.0863 54.0511 15.3917 48.646 15.3917 41.9701V26.0306C15.3917 19.3547 21.0863 13.9497 28.1199 13.9497H44.9134C51.947 13.9497 57.6417 19.3547 57.6417 26.0306V41.9701ZM44.9134 17.7317H28.1199C23.2803 17.7317 19.3763 21.4371 19.3763 26.0306V41.9701C19.3763 46.5483 23.2803 50.2691 28.1199 50.2691H44.9134C49.7369 50.2691 53.657 46.5483 53.657 41.9701V26.0306C53.657 21.4371 49.7369 17.7317 44.9134 17.7317ZM36.5893 44.1597C30.8301 44.1597 26.1518 39.7193 26.1518 34.253C26.1518 28.8021 30.8301 24.3464 36.5893 24.3464C42.3323 24.3464 47.0267 28.8021 47.0267 34.253C47.0267 39.7193 42.3323 44.1597 36.5893 44.1597ZM47.6236 26.046C46.2524 26.046 45.1393 24.9894 45.1393 23.688C45.1393 22.3865 46.2524 21.3299 47.6236 21.3299C48.9949 21.3299 50.108 22.3865 50.108 23.688C50.108 24.9894 48.9949 26.046 47.6236 26.046ZM36.5893 27.914C32.895 27.914 29.8944 30.762 29.8944 34.253C29.8944 37.7594 32.895 40.6074 36.5893 40.6074C40.2674 40.6074 43.268 37.7594 43.268 34.253C43.268 30.762 40.2674 27.914 36.5893 27.914Z" fill="#C2000B"/></svg>