<svg width="17" height="16" viewBox="0 0 17 16" fill="none" xmlns="http://www.w3.org/2000/svg"><path d="M8.89902 6.56798C8.07398 6.56798 7.40387 7.23809 7.40387 8.05952C7.40387 8.88455 8.07398 9.55466 8.89902 9.55466C9.72046 9.55466 10.3906 8.88455 10.3906 8.05952C10.3906 7.23809 9.72046 6.56798 8.89902 6.56798ZM8.89902 6.56798C8.07398 6.56798 7.40387 7.23809 7.40387 8.05952C7.40387 8.88455 8.07398 9.55466 8.89902 9.55466C9.72046 9.55466 10.3906 8.88455 10.3906 8.05952C10.3906 7.23809 9.72046 6.56798 8.89902 6.56798ZM8.88101 0.000152588C4.46399 0.000152588 0.882812 3.58129 0.882812 7.99827C0.882812 12.4189 4.46399 16 8.88101 16C13.3016 16 16.8828 12.4189 16.8828 7.99827C16.8828 3.58129 13.3016 0.000152588 8.88101 0.000152588ZM13.6007 9.87531C13.6007 11.4461 12.3289 12.7179 10.7581 12.7179H7.00756C5.43674 12.7179 4.16496 11.4461 4.16496 9.87531V6.12484C4.16496 4.55404 5.43674 3.28226 7.00756 3.28226H10.7581C12.3289 3.28226 13.6007 4.55404 13.6007 6.12484V9.87531ZM10.7581 4.17214H7.00756C5.92672 4.17214 5.05485 5.04401 5.05485 6.12484V9.87531C5.05485 10.9525 5.92672 11.828 7.00756 11.828H10.7581C11.8353 11.828 12.7108 10.9525 12.7108 9.87531V6.12484C12.7108 5.04401 11.8353 4.17214 10.7581 4.17214ZM8.89902 10.3905C7.61283 10.3905 6.56802 9.3457 6.56802 8.05952C6.56802 6.77694 7.61283 5.72854 8.89902 5.72854C10.1816 5.72854 11.23 6.77694 11.23 8.05952C11.23 9.3457 10.1816 10.3905 8.89902 10.3905ZM11.3633 6.12844C11.0571 6.12844 10.8085 5.87985 10.8085 5.57362C10.8085 5.26738 11.0571 5.01879 11.3633 5.01879C11.6696 5.01879 11.9182 5.26738 11.9182 5.57362C11.9182 5.87985 11.6696 6.12844 11.3633 6.12844ZM8.89902 6.56798C8.07398 6.56798 7.40387 7.23809 7.40387 8.05952C7.40387 8.88455 8.07398 9.55466 8.89902 9.55466C9.72046 9.55466 10.3906 8.88455 10.3906 8.05952C10.3906 7.23809 9.72046 6.56798 8.89902 6.56798Z" fill="#B3B3B3"/></svg>