<svg width="28" height="34" viewBox="0 0 28 34" fill="none" xmlns="http://www.w3.org/2000/svg"><g clip-path="url(#clip0_135_4404)"><path d="M27.35 13.69C27.35 6.14 21.23 0.01 13.68 0C6.13 0.01 0 6.14 0 13.69C0 25 13 33.21 13.67 33.64C13.66 33.65 13.66 33.65 13.66 33.65H13.7C13.7 33.65 13.7 33.65 13.69 33.64C14.36 33.21 27.35 25 27.35 13.69ZM13.68 21.72C9.46 21.72 6.05 18.3 6.05 14.09C6.05 9.87 9.46 6.45 13.68 6.45C17.89 6.45 21.31 9.87 21.31 14.09C21.31 18.3 17.89 21.72 13.68 21.72Z" fill="#000"/></g><defs><clipPath id="clip0_135_4404"><path fill="#fff" d="M0 0H27.35V33.65H0z"/></clipPath></defs></svg>