<svg width="47" height="47" viewBox="0 0 47 47" fill="none" xmlns="http://www.w3.org/2000/svg"><g clip-path="url(#clip0_1_264)" fill="#7F7F7F"><path d="M9.94116 19.8823C15.4315 19.8823 19.8823 15.4315 19.8823 9.94116C19.8823 4.45081 15.4315 0 9.94116 0C4.45081 0 0 4.45081 0 9.94116C0 15.4315 4.45081 19.8823 9.94116 19.8823Z"/><path d="M37.0588 47C42.5492 47 47 42.5492 47 37.0588C47 31.5685 42.5492 27.1177 37.0588 27.1177C31.5685 27.1177 27.1177 31.5685 27.1177 37.0588C27.1177 42.5492 31.5685 47 37.0588 47Z"/><path d="M40.6564 -2.49534e-05L0.00222969 40.6542L6.34454 46.9965L46.9987 6.34228L40.6564 -2.49534e-05Z"/></g><defs><clipPath id="clip0_1_264"><path fill="#fff" d="M0 0H47V47H0z"/></clipPath></defs></svg>