<svg width="30" height="30" viewBox="0 0 30 30" fill="none" xmlns="http://www.w3.org/2000/svg"><g clip-path="url(#clip0_135_4435)"><path d="M15.0035 0C6.719 0 0 6.71363 0 15C0 23.2864 6.719 30 15.0035 30C23.2879 30 30 23.2864 30 15C30 6.71363 23.2879 0 15.0035 0ZM23.094 20.1894C22.7823 21.0693 21.2376 21.9145 20.5449 21.97C19.8522 22.0393 19.8522 22.5381 16.0079 21.0416C12.1704 19.5312 9.74602 15.6166 9.55899 15.3741C9.41353 15.1871 8.58924 14.0993 8.20827 12.776C8.09051 12.3672 8.01431 11.9307 8.01431 11.5012C8.01431 9.65127 8.98407 8.74365 9.33041 8.36259C9.67675 7.98845 10.0924 7.89838 10.3417 7.89838C10.598 7.89838 10.8474 7.93303 11.0621 7.93303C11.2907 7.93303 11.6093 7.80139 11.9141 8.54965C12.2327 9.30485 12.9947 11.1547 13.0847 11.3418C13.1817 11.5289 13.2441 11.7436 13.1124 11.9931C13.0293 12.1801 12.9601 12.3048 12.8769 12.4434C12.8354 12.4988 12.7869 12.5612 12.7384 12.6236C12.5444 12.8383 12.3436 13.1085 12.1704 13.2818C11.9834 13.4688 11.7894 13.6697 12.0042 14.0439C12.2189 14.4249 12.9878 15.6513 14.103 16.6351C15.5438 17.9238 16.7698 18.3118 17.1438 18.4988C17.5248 18.6859 17.7396 18.6582 17.9612 18.4088C18.1829 18.1594 18.9102 17.3141 19.1595 16.94C19.4158 16.5658 19.6652 16.6212 20.0115 16.7529C20.3579 16.8776 22.2143 17.7852 22.5952 17.9723C22.9693 18.1594 23.2256 18.2564 23.3226 18.4088C23.4126 18.5681 23.4126 19.3164 23.094 20.1894Z" fill="#000"/></g><defs><clipPath id="clip0_135_4435"><path fill="#fff" d="M0 0H30V30H0z"/></clipPath></defs></svg>