<svg width="72" height="68" viewBox="0 0 72 68" fill="none" xmlns="http://www.w3.org/2000/svg"><path d="M36.1707 0.000732422C16.3927 0.000732422 0.357422 15.2206 0.357422 33.9927C0.357422 52.7802 16.3927 68 36.1707 68C55.9648 68 72.0001 52.7802 72.0001 33.9927C72.0001 15.2206 55.9648 0.000732422 36.1707 0.000732422Z" fill="#C2000B"/><path d="M49.8858 19.8529C49.7684 19.5095 49.6285 19.4133 49.4119 19.3309C48.938 19.1477 48.1346 19.4225 48.1346 19.4225C48.1346 19.4225 19.6605 29.8034 18.0357 30.9527C17.6837 31.2 17.5664 31.3419 17.5122 31.5114C17.2324 32.331 18.108 32.6928 18.108 32.6928L25.4465 35.1197C25.4465 35.1197 25.7218 35.1609 25.8166 35.0968C27.4865 34.0253 42.6149 24.3359 43.486 24.0108C43.6259 23.9696 43.7252 24.0154 43.6981 24.1115C43.3506 25.357 30.2125 37.2032 30.2125 37.2032C30.2125 37.2032 30.1629 37.2673 30.1313 37.3406L30.1132 37.3314L29.4272 44.7176C29.4272 44.7176 29.1383 46.9797 31.3724 44.7176C32.9475 43.1195 34.4685 41.7869 35.2312 41.1367C37.7541 42.9042 40.4711 44.8595 41.6401 45.8807C42.2268 46.3935 42.7232 46.476 43.1249 46.4622C44.2397 46.421 44.5466 45.1801 44.5466 45.1801C44.5466 45.1801 49.7368 23.9925 49.9083 21.1534C49.9264 20.8741 49.9489 20.7001 49.9489 20.5077C49.9535 20.2422 49.9264 19.9766 49.8858 19.8529Z" fill="#fff"/></svg>