<svg width="16" height="16" viewBox="0 0 16 16" fill="none" xmlns="http://www.w3.org/2000/svg"><path d="M7.9982 0.000152588C3.58117 0.000152588 0 3.58129 0 7.99827C0 12.4189 3.58117 16 7.9982 16C12.4188 16 16 12.4189 16 7.99827C16 3.58129 12.4188 0.000152588 7.9982 0.000152588Z" fill="#B3B3B3"/><path d="M11.0607 4.67124C11.0345 4.59043 11.0032 4.56781 10.9548 4.54841C10.849 4.50532 10.6696 4.56996 10.6696 4.56996C10.6696 4.56996 4.31046 7.01252 3.9476 7.28296C3.86898 7.34114 3.84278 7.37454 3.83068 7.41441C3.76819 7.60727 3.96373 7.69239 3.96373 7.69239L5.60265 8.26343C5.60265 8.26343 5.66414 8.27313 5.6853 8.25805C6.05824 8.00592 9.43688 5.72606 9.63141 5.64956C9.66266 5.63986 9.68483 5.65064 9.67879 5.67326C9.60117 5.96633 6.66704 8.75367 6.66704 8.75367C6.66704 8.75367 6.65596 8.76875 6.6489 8.78599L6.64487 8.78384L6.49166 10.5218C6.49166 10.5218 6.42715 11.054 6.92608 10.5218C7.27786 10.1457 7.61754 9.83219 7.78788 9.67919C8.35132 10.0951 8.9581 10.5552 9.21916 10.7954C9.3502 10.9161 9.46107 10.9355 9.55078 10.9323C9.79974 10.9226 9.86828 10.6306 9.86828 10.6306C9.86828 10.6306 11.0274 5.64525 11.0657 4.97724C11.0698 4.91151 11.0748 4.87057 11.0748 4.82532C11.0758 4.76283 11.0698 4.70033 11.0607 4.67124Z" fill="#fff"/></svg>