<svg width="72" height="68" viewBox="0 0 72 68" fill="none" xmlns="http://www.w3.org/2000/svg"><path d="M35.8294 0C16.0514 0 0 15.2198 0 33.992C0 52.7795 16.0514 67.9993 35.8294 67.9993C55.6235 67.9993 71.6588 52.7795 71.6588 33.992C71.6588 15.2198 55.6235 0 35.8294 0ZM36.2973 53.2082C32.9418 53.2082 29.6347 52.4273 26.6986 50.9268L18.1486 53.1623C18.0034 53.1929 17.8421 53.2082 17.6808 53.2082C17.1646 53.2082 16.6645 53.0091 16.3257 52.6264C15.874 52.1211 15.7772 51.4167 16.0676 50.8196L19.1649 44.3427C17.0194 41.2191 15.9063 37.6056 15.9063 33.8542C15.9063 23.1666 25.0532 14.4849 36.2973 14.4849C47.5575 14.4849 56.7044 23.1666 56.7044 33.8542C56.7044 44.5265 47.5575 53.2082 36.2973 53.2082ZM36.2973 17.8688C27.0213 17.8688 19.4715 25.0346 19.4715 33.8542C19.4715 37.2228 20.5684 40.4535 22.6495 43.1943C23.0205 43.6843 23.0851 44.3274 22.8269 44.8786L20.875 48.9362L26.4567 47.4816C26.6019 47.451 26.7632 47.4204 26.9245 47.4204C27.2471 47.4204 27.5536 47.4969 27.8279 47.65C30.3929 49.074 33.3289 49.8396 36.2973 49.8396C45.5893 49.8396 53.1392 42.6584 53.1392 33.8542C53.1392 25.0346 45.5893 17.8688 36.2973 17.8688ZM46.3153 40.0401C45.6861 41.4947 44.1375 42.4134 42.5565 42.7044C41.0401 42.9647 39.7979 42.5206 38.4106 42.0766C37.1684 41.6938 35.9585 41.1119 34.8454 40.4689C32.603 39.1674 30.6833 37.4371 29.1346 35.4313C28.6506 34.8188 28.2151 34.191 27.8118 33.5326C27.2794 32.6599 26.7954 31.7565 26.5535 30.7765C26.4405 30.3631 26.3921 29.9497 26.3921 29.521C26.376 28.0357 26.9729 26.5505 28.1989 25.5859C28.9249 25.0346 29.9735 24.7897 30.7801 25.2337C31.6512 25.693 32.1029 26.8721 32.5062 27.6989C32.8288 28.3573 33.1838 29.1994 33.0547 29.9344C32.9256 30.654 32.3126 31.2665 31.8287 31.8177C31.506 32.1699 31.4576 32.4915 31.7319 32.8742C33.3289 35.416 35.5552 37.2534 38.459 38.3405C38.8461 38.4936 39.1526 38.4477 39.4107 38.1415C39.9108 37.5596 40.4109 36.4112 41.1692 36.1203C42.1855 35.7222 43.2986 36.2581 44.1536 36.7481C44.9441 37.2075 46.283 37.7587 46.4927 38.6927C46.5895 39.1367 46.4927 39.6114 46.3153 40.0401Z" fill="#C2000B"/></svg>