<svg width="16" height="16" viewBox="0 0 16 16" fill="none" xmlns="http://www.w3.org/2000/svg"><path d="M8 0C3.58397 0 0 3.58114 0 7.99812C0 12.4187 3.58397 15.9998 8 15.9998C12.4196 15.9998 16 12.4187 16 7.99812C16 3.58114 12.4196 0 8 0ZM8.10446 12.5196C7.35525 12.5196 6.61684 12.3358 5.96128 11.9828L4.05223 12.5088C4.01981 12.516 3.98379 12.5196 3.94777 12.5196C3.83251 12.5196 3.72085 12.4727 3.64521 12.3827C3.54435 12.2638 3.52274 12.0981 3.58757 11.9575L4.27915 10.4336C3.80009 9.69862 3.55155 8.84837 3.55155 7.9657C3.55155 5.45097 5.59388 3.40821 8.10446 3.40821C10.6186 3.40821 12.661 5.45097 12.661 7.9657C12.661 10.4768 10.6186 12.5196 8.10446 12.5196ZM8.10446 4.20442C6.03332 4.20442 4.34759 5.89051 4.34759 7.9657C4.34759 8.7583 4.59253 9.51848 5.05718 10.1634C5.14003 10.2787 5.15444 10.43 5.0968 10.5597L4.66096 11.5144L5.90725 11.1721C5.93967 11.1649 5.97569 11.1577 6.01171 11.1577C6.08375 11.1577 6.15218 11.1758 6.21342 11.2118C6.78613 11.5468 7.44169 11.727 8.10446 11.727C10.1792 11.727 11.8649 10.0373 11.8649 7.9657C11.8649 5.89051 10.1792 4.20442 8.10446 4.20442ZM10.3413 9.42121C10.2008 9.76347 9.85502 9.97964 9.50203 10.0481C9.16344 10.1093 8.88609 10.0049 8.57632 9.90038C8.29897 9.81031 8.02882 9.6734 7.78028 9.52209C7.2796 9.21585 6.85097 8.80874 6.50518 8.33678C6.39712 8.19267 6.29987 8.04496 6.20982 7.89004C6.09095 7.68468 5.98289 7.47212 5.92886 7.24154C5.90365 7.14427 5.89284 7.04699 5.89284 6.94612C5.88924 6.59665 6.02251 6.24718 6.29626 6.02021C6.45835 5.89051 6.69248 5.83286 6.87258 5.93734C7.06709 6.04543 7.16794 6.32284 7.25799 6.51739C7.33003 6.67231 7.40928 6.87046 7.38046 7.04339C7.35164 7.21272 7.21477 7.35683 7.10671 7.48653C7.03467 7.56939 7.02386 7.64505 7.0851 7.73512C7.44169 8.33318 7.93877 8.76551 8.58712 9.0213C8.67357 9.05733 8.74201 9.04652 8.79964 8.97447C8.9113 8.83756 9.02296 8.56736 9.19226 8.4989C9.41918 8.40523 9.66772 8.53133 9.85862 8.64662C10.0351 8.7547 10.3341 8.8844 10.3809 9.10417C10.4025 9.20865 10.3809 9.32033 10.3413 9.42121Z" fill="#B3B3B3"/></svg>