<svg width="31" height="31" viewBox="0 0 31 31" fill="none" xmlns="http://www.w3.org/2000/svg"><path d="M15.375 0.20697C6.88794 0.20697 0 7.08981 0 15.5791C0 24.0753 6.88794 30.9582 15.375 30.9582C23.869 30.9582 30.75 24.0753 30.75 15.5791C30.75 7.08981 23.869 0.20697 15.375 0.20697ZM15.5758 24.2692C14.1359 24.2692 12.7167 23.9161 11.4568 23.2375L7.78788 24.2484C7.72557 24.2623 7.65635 24.2692 7.58712 24.2692C7.3656 24.2692 7.151 24.1792 7.00563 24.0061C6.8118 23.7776 6.77026 23.4591 6.89487 23.189L8.224 20.26C7.3033 18.8474 6.82564 17.2133 6.82564 15.5168C6.82564 10.6836 10.7507 6.75744 15.5758 6.75744C20.4077 6.75744 24.3328 10.6836 24.3328 15.5168C24.3328 20.3431 20.4077 24.2692 15.5758 24.2692ZM15.5758 8.28773C11.5953 8.28773 8.35553 11.5283 8.35553 15.5168C8.35553 17.0402 8.82626 18.5012 9.71927 19.7407C9.87849 19.9622 9.90618 20.2531 9.79542 20.5023L8.95779 22.3373L11.353 21.6795C11.4153 21.6656 11.4845 21.6518 11.5538 21.6518C11.6922 21.6518 11.8237 21.6864 11.9414 21.7557C13.0421 22.3996 14.302 22.7458 15.5758 22.7458C19.5631 22.7458 22.8029 19.4983 22.8029 15.5168C22.8029 11.5283 19.5631 8.28773 15.5758 8.28773ZM19.8747 18.3142C19.6047 18.9721 18.9401 19.3875 18.2617 19.5191C17.611 19.6368 17.0779 19.436 16.4826 19.2352C15.9496 19.0621 15.4304 18.7989 14.9527 18.5081C13.9905 17.9195 13.1667 17.1371 12.5021 16.23C12.2945 15.953 12.1076 15.6691 11.9345 15.3714C11.706 14.9767 11.4984 14.5681 11.3945 14.125C11.3461 13.938 11.3253 13.7511 11.3253 13.5572C11.3184 12.8855 11.5745 12.2139 12.1006 11.7776C12.4121 11.5283 12.8621 11.4176 13.2082 11.6184C13.5821 11.8261 13.7759 12.3593 13.949 12.7332C14.0874 13.0309 14.2397 13.4118 14.1843 13.7441C14.1289 14.0696 13.8659 14.3466 13.6582 14.5958C13.5198 14.7551 13.499 14.9005 13.6167 15.0736C14.302 16.2231 15.2573 17.054 16.5034 17.5456C16.6695 17.6149 16.801 17.5941 16.9118 17.4556C17.1264 17.1925 17.341 16.6732 17.6664 16.5416C18.1025 16.3616 18.5801 16.6039 18.947 16.8255C19.2862 17.0332 19.8608 17.2825 19.9508 17.7049C19.9923 17.9057 19.9508 18.1204 19.8747 18.3142Z" fill="#000"/></svg>